<?xml version="1.0" encoding="UTF-8" standalone="no"?>
<!-- Created with Inkscape (http://www.inkscape.org/) -->

<svg
   xmlns:dc="http://purl.org/dc/elements/1.1/"
   xmlns:cc="http://creativecommons.org/ns#"
   xmlns:rdf="http://www.w3.org/1999/02/22-rdf-syntax-ns#"
   xmlns:svg="http://www.w3.org/2000/svg"
   xmlns="http://www.w3.org/2000/svg"
   xmlns:xlink="http://www.w3.org/1999/xlink"
   xmlns:sodipodi="http://sodipodi.sourceforge.net/DTD/sodipodi-0.dtd"
   xmlns:inkscape="http://www.inkscape.org/namespaces/inkscape"
   width="486"
   height="486"
   id="svg2"
   version="1.1"
   inkscape:version="0.48.1 r9760"
   sodipodi:docname="drawingTeste.svg">
  <defs
     id="defs4">
    <linearGradient
       id="linearGradient3884">
      <stop
         style="stop-color:#ffffff;stop-opacity:0.73846155;"
         offset="0"
         id="stop3932" />
      <stop
         style="stop-color:#ffffff;stop-opacity:0.45384616;"
         offset="0.34572521"
         id="stop3888" />
      <stop
         id="stop3934"
         offset="0.78190297"
         style="stop-color:#ffffff;stop-opacity:0.08461539;" />
      <stop
         id="stop3890"
         offset="1"
         style="stop-color:#ffffff;stop-opacity:0;" />
    </linearGradient>
    <linearGradient
       id="linearGradient3779">
      <stop
         style="stop-color:#ffffff;stop-opacity:1;"
         offset="0"
         id="stop3781" />
      <stop
         id="stop3882"
         offset="0.5"
         style="stop-color:#ffffff;stop-opacity:0.49803922;" />
      <stop
         style="stop-color:#ffffff;stop-opacity:0;"
         offset="1"
         id="stop3783" />
    </linearGradient>
    <inkscape:perspective
       sodipodi:type="inkscape:persp3d"
       inkscape:vp_x="0 : 526.18109 : 1"
       inkscape:vp_y="0 : 1000 : 0"
       inkscape:vp_z="744.09448 : 526.18109 : 1"
       inkscape:persp3d-origin="372.04724 : 350.78739 : 1"
       id="perspective10" />
    <filter
       inkscape:collect="always"
       id="filter4590"
       color-interpolation-filters="sRGB">
      <feGaussianBlur
         inkscape:collect="always"
         stdDeviation="4.6987787"
         id="feGaussianBlur4592" />
    </filter>
    <radialGradient
       inkscape:collect="always"
       xlink:href="#linearGradient3779"
       id="radialGradient3785"
       cx="286.89853"
       cy="266.69159"
       fx="286.89853"
       fy="266.69159"
       r="161.78488"
       gradientUnits="userSpaceOnUse" />
    <radialGradient
       inkscape:collect="always"
       xlink:href="#linearGradient3779-8"
       id="radialGradient3785-0"
       cx="286.89853"
       cy="266.69159"
       fx="286.89853"
       fy="266.69159"
       r="161.78488"
       gradientUnits="userSpaceOnUse" />
    <linearGradient
       id="linearGradient3779-8">
      <stop
         style="stop-color:#ffffff;stop-opacity:1;"
         offset="0"
         id="stop3781-3" />
      <stop
         style="stop-color:#ffffff;stop-opacity:0;"
         offset="1"
         id="stop3783-5" />
    </linearGradient>
    <radialGradient
       r="161.78488"
       fy="266.69159"
       fx="286.89853"
       cy="266.69159"
       cx="286.89853"
       gradientUnits="userSpaceOnUse"
       id="radialGradient3824"
       xlink:href="#linearGradient3779-8"
       inkscape:collect="always" />
    <radialGradient
       inkscape:collect="always"
       xlink:href="#linearGradient3779-3"
       id="radialGradient3785-8"
       cx="286.89853"
       cy="266.69159"
       fx="286.89853"
       fy="266.69159"
       r="161.78488"
       gradientUnits="userSpaceOnUse" />
    <linearGradient
       id="linearGradient3779-3">
      <stop
         style="stop-color:#ffffff;stop-opacity:1;"
         offset="0"
         id="stop3781-7" />
      <stop
         style="stop-color:#ffffff;stop-opacity:0;"
         offset="1"
         id="stop3783-8" />
    </linearGradient>
    <radialGradient
       r="161.78488"
       fy="266.69159"
       fx="286.89853"
       cy="266.69159"
       cx="286.89853"
       gradientUnits="userSpaceOnUse"
       id="radialGradient3858"
       xlink:href="#linearGradient3884"
       inkscape:collect="always"
       gradientTransform="matrix(0.89132839,-0.01730127,0.01882542,0.96403396,26.157143,14.555547)" />
  </defs>
  <sodipodi:namedview
     id="base"
     pagecolor="#ffffff"
     bordercolor="#666666"
     borderopacity="1.0"
     inkscape:pageopacity="0.0"
     inkscape:pageshadow="2"
     inkscape:zoom="0.6953678"
     inkscape:cx="123.26337"
     inkscape:cy="228.80481"
     inkscape:document-units="px"
     inkscape:current-layer="layer2"
     showgrid="false"
     inkscape:window-width="1280"
     inkscape:window-height="752"
     inkscape:window-x="0"
     inkscape:window-y="25"
     inkscape:window-maximized="1" />
  <metadata
     id="metadata7">
    <rdf:RDF>
      <cc:Work
         rdf:about="">
        <dc:format>image/svg+xml</dc:format>
        <dc:type
           rdf:resource="http://purl.org/dc/dcmitype/StillImage" />
        <dc:title />
      </cc:Work>
    </rdf:RDF>
  </metadata>
  <g
     inkscape:groupmode="layer"
     id="layer3"
     inkscape:label="Layer#1"
     style="display:none">
    <rect
       style="fill:#000000;fill-opacity:1;stroke:none"
       id="rect3878"
       width="486.07373"
       height="483.19751"
       x="2.1332273"
       y="1.478804" />
  </g>
  <g
     inkscape:groupmode="layer"
     id="layer2"
     inkscape:label="Layer"
     style="display:inline;opacity:0.47286822">
    <path
       sodipodi:type="arc"
       style="fill:url(#radialGradient3858);fill-opacity:1;fill-rule:evenodd;stroke:none;display:inline"
       id="path3009"
       sodipodi:cx="286.89853"
       sodipodi:cy="266.69159"
       sodipodi:rx="161.78488"
       sodipodi:ry="161.78488"
       d="M 448.68341,266.69159 A 161.78488,161.78488 0 1 1 444.58502,230.5071"
       transform="matrix(1.4755557,0,0,1.48,-181.01696,-153.17849)"
       sodipodi:start="0"
       sodipodi:end="6.0576193"
       sodipodi:open="true" />
  </g>
  <g
     inkscape:label="Layer 1"
     inkscape:groupmode="layer"
     id="layer1"
     transform="translate(0,-566.35885)"
     style="display:inline">
    <g
       id="g2990"
       transform="matrix(0.91775859,0,0,0.91775859,-76.756113,181.05252)">
      <path
         inkscape:connector-curvature="0"
         inkscape:export-ydpi="17.537663"
         inkscape:export-xdpi="17.537663"
         inkscape:export-filename="/home/daniel/peq.png"
         inkscape:transform-center-y="-234.75867"
         inkscape:transform-center-x="114.30199"
         id="path3626"
         d="m 164.93929,627.31302 c -18.74265,25.2301 -27.69094,47.89671 -20.5,63.4375 7.82452,-3.72624 17.90997,-6.8803 30.5625,-9.34375 2.31297,-0.45034 4.60587,-0.86759 6.875,-1.28125 -1.71866,-16.68152 -2.8137,-33.342 -3.25,-49.46875 l -13.6875,-3.34375 z m 16.9375,52.8125 c 1.0769,10.45253 2.39184,20.90818 3.9375,31.25 4.7665,0.46437 9.98289,0.7001 15.625,0.71875 5.97692,0.0198 11.69723,-0.076 17.25,-0.28125 19.98161,-18.22317 30.87388,-28.21299 41.96875,-38.375 -22.09095,-1.07592 -48.48023,1.16371 -78.78125,6.6875 z m 3.9375,31.25 c -23.25435,-2.26555 -36.31029,-9.67934 -41.375,-20.625 -36.08792,17.18603 -23.53606,46.59606 12.59375,77.09375 11.05163,-9.99744 22.1266,-20.07389 33.25,-30.1875 -1.6529,-8.61842 -3.14262,-17.40825 -4.46875,-26.28125 z"
         style="opacity:0.97000002;fill:#298585;fill-opacity:1;fill-rule:evenodd;stroke:none" />
      <path
         inkscape:connector-curvature="0"
         inkscape:export-ydpi="17.537663"
         inkscape:export-xdpi="17.537663"
         inkscape:export-filename="/home/daniel/peq.png"
         inkscape:transform-center-y="-137.1537"
         inkscape:transform-center-x="53.689773"
         id="path3634"
         d="m 279.75662,679.43362 -10.34375,27 c 6.50437,-1.84732 12.44485,-3.94372 17.78125,-6.375 l 0.78125,-18.53125 c -2.62884,-0.78177 -5.37338,-1.47437 -8.21875,-2.09375 z m 3.84375,106.40625 c -7.64222,14.75757 -14.93658,31.82768 -21.84375,51.15625 6.39694,2.86393 12.86795,5.64614 19.34375,8.3125 l 2.5,-59.46875 z m -21.84375,51.15625 c -12.2185,-5.47026 -24.21684,-11.28431 -35.78125,-17.3125 l -9.21875,24.09375 c 10.48913,18.26267 22.4394,29.7205 35.5,30.90625 0.68754,-8.6347 2.99836,-18.94667 7.1875,-31.125 0.76216,-2.2157 1.5406,-4.40248 2.3125,-6.5625 z m -9.5,37.6875 c -1.86683,23.44519 8.34938,34.43959 26.125,36.25 l 2.0625,-49.3125 c -9.83422,9.89399 -19.26459,13.8726 -28.1875,13.0625 z"
         style="fill:#83f446;fill-opacity:1;fill-rule:evenodd;stroke:none" />
      <path
         inkscape:connector-curvature="0"
         inkscape:export-ydpi="17.537663"
         inkscape:export-xdpi="17.537663"
         inkscape:export-filename="/home/daniel/peq.png"
         inkscape:transform-center-y="-329.80554"
         inkscape:transform-center-x="-135.36793"
         id="path4333"
         d="m 472.13136,532.90599 -25.12055,19.07597 c 10.91917,11.26359 28.67744,17.6835 41.83901,16.88987 -4.41882,-11.60068 -9.48961,-24.85048 -16.71846,-35.96584 z m -45.29701,34.37867 -51.01274,38.72093 c -2.17336,9.6395 -4.07517,18.83824 -6.17296,26.02357 -0.49357,6.62162 -0.38094,13.3013 0.48583,19.88453 23.41212,-18.24645 49.64084,-53.95259 56.69987,-84.62903 z m 64.50181,9.43317 c 12.91979,23.50808 7.66168,59.79887 22.23412,81.45469 l 52.12729,-3.83316 c -2.25075,-19.12605 -18.4078,-44.66907 -35.95183,-50.54982 -12.54814,-9.41731 -24.99291,-19.02756 -38.40958,-27.07171 z m -165.44129,67.20012 -8.74504,6.64814 c 3.43832,2.09316 7.00378,3.97065 10.68838,5.54012 -0.43287,-3.89696 -1.09775,-7.98485 -1.94334,-12.18826 z m 29.35018,10.84066 c -11.33964,-0.0539 -23.93967,7.22733 -31.77936,17.39896 l 52.98465,-3.89305 c -0.48142,-0.45073 -0.9439,-0.92977 -1.4575,-1.37754 -4.62904,-8.54833 -11.89446,-12.091 -19.74779,-12.12837 z"
         style="fill:#f72300;fill-opacity:1;fill-rule:evenodd;stroke:none" />
      <path
         inkscape:connector-curvature="0"
         inkscape:export-ydpi="17.537663"
         inkscape:export-xdpi="17.537663"
         inkscape:export-filename="/home/daniel/peq.png"
         inkscape:transform-center-y="-230"
         inkscape:transform-center-x="-65.986401"
         id="path4576"
         d="m 421.10549,476.06872 c -0.90962,0.006 -1.80104,0.0686 -2.65625,0.1875 -27.38385,1.8007 -84.29819,18.25817 -85.4375,36.5625 39.32798,11.38781 88.66748,40.00905 115.6875,-9.5 4.83967,-15.08486 -13.94945,-27.34103 -27.59375,-27.25 z m -141.0625,30.09375 c -16.63928,-0.0828 -32.93167,3.2924 -44.6875,15.65625 19.54517,39.38078 65.49997,12.38111 77.96875,-12.4375 -10.34458,-1.49636 -21.89648,-3.16211 -33.28125,-3.21875 z m 169.8125,6.625 c -11.19981,16.80323 -7.47677,31.41858 2.5,42.1875 l 27.75,-20.125 c -7.53229,-10.50635 -17.16678,-18.89976 -30.25,-22.0625 z m -240.5625,1.96875 c -8.1713,-0.098 -17.08078,6.45144 -25.375,23.1875 -7.41815,23.92125 -22.2866,77.50742 -7.40625,88.1875 17.15803,-22.44439 40.09727,-40.1258 61.65625,-58.1875 1.44352,-24.98826 -12.1433,-52.98686 -28.875,-53.1875 z m 214.71875,29.84375 c -29.06297,-0.42821 -39.85952,34.3401 -47.28125,65.15625 l 55.71875,-40.375 c 1.70164,-8.49758 1.87286,-16.5744 -0.0312,-23.75 -2.95877,-0.65117 -5.76145,-0.99228 -8.40625,-1.03125 z m -168.90625,8.71875 c -32.67918,35.8001 26.55899,76.61478 50.15625,101.9375 1.49823,1.02813 3.04337,1.9886 4.59375,2.9375 l 11.03125,-8 c -8.94711,-39.7091 -35.06585,-88.56507 -65.78125,-96.875 z m -85.1875,78.59375 c -17.91478,8.14603 7.42473,18.82931 0,0 z m 413.78125,39.375 -50.25,3.53125 c 4.10699,3.47779 9.15778,6.29456 15.4375,8.25 23.32043,7.67433 33.32467,0.56169 34.8125,-11.78125 z m -69.78125,4.875 -77.96875,5.46875 c -7.88593,2.38487 -15.15781,4.60488 -21.1875,6 -6.4068,3.02986 -12.52305,6.71443 -18.125,11.0625 37.98116,16.16114 102.27859,22.23943 129.59375,-2.875 -2.04844,-9.39255 -6.40532,-15.68127 -12.3125,-19.65625 z m -130.375,9.15625 -70.09375,4.90625 c -5.68671,12.00678 -4.32622,25.95288 11.03125,36.96875 3.916,5.21951 6.29271,11.58782 6.59375,18.09375 34.11346,2.65705 74.38986,-29.92596 52.46875,-59.96875 z m 177.375,8.59375 c -39.86041,0.60165 -39.07606,51.31523 -24.28125,73.8125 15.91843,-20.20173 36.37837,-46.12946 28.28125,-73.6875 -1.37126,-0.0875 -2.71418,-0.14441 -4,-0.125 z m -297.9375,0.90625 c -1.44655,0.004 -3.02522,0.11773 -4.75,0.3125 -15.29991,13.35627 -54.94147,43.80899 -10.3125,36.6875 17.96054,0.50121 44.47563,-37.074 15.0625,-37 z m 29.3125,6.15625 c -12.94038,0.27037 -8.08313,34.49936 11.84375,6.4375 -4.91407,-4.73471 -8.85751,-6.49989 -11.84375,-6.4375 z m 85.03125,39.96875 c 4.79318,41.2297 33.69585,102.42844 68.40625,111.8125 32.67459,-35.81375 -26.5336,-76.59945 -50.15625,-101.90625 -5.71461,-3.92103 -11.82705,-7.29249 -18.25,-9.90625 z m -53.65625,12.4375 c -36.21364,17.70704 -44.48172,61.14161 -43.3125,97.875 -1.11511,10.64612 -2.32919,13.94373 9.15625,16.53125 18.18034,-31.09831 56.09033,-89.64998 34.15625,-114.40625 z m -140.9375,10.59375 c -46.81399,10.29855 -9.01961,66.90058 13.46875,48.84375 -6.14616,-15.78061 -10.37163,-32.08084 -13.46875,-48.84375 z m 348.1875,10.1875 c -18.57606,32.10634 -74.03309,46.15304 -64,90.78125 13.15767,62.96172 68.42985,-3.94524 60.53125,-40.28125 1.65014,-16.80685 3.53609,-33.58689 3.46875,-50.5 z m -332.34375,49.65625 c -2.82319,24.63684 33.35132,45.43077 20.78125,11.375 -6.41503,-4.81171 -14.69319,-6.03066 -20.78125,-11.375 z m 236.9375,40.53125 c -19.32575,0.47042 -40.20501,16.82294 -48,32.3125 25.45536,3.68394 58.133,8.43562 77.9375,-12.375 -7.31031,-14.77741 -18.34205,-20.21975 -29.9375,-19.9375 z m -136.5,8.28125 c -10.33471,0.20393 -18.06268,5.76518 -20.75,21.78125 -17.49335,63.48693 59.69868,21.96502 88.875,6.84375 l 5.96875,-3.1875 5.96875,-3.125 c -21.99242,2.74051 -57.32613,-22.76114 -80.0625,-22.3125 z"
         style="opacity:0.37554585;fill:#000000;fill-opacity:1;fill-rule:evenodd;stroke:none;filter:url(#filter4590)" />
      <path
         inkscape:connector-curvature="0"
         inkscape:export-ydpi="17.537663"
         inkscape:export-xdpi="17.537663"
         inkscape:export-filename="/home/daniel/peq.png"
         id="path2816"
         d="m 408.46373,462.96648 c -0.90962,0.006 -1.80104,0.0686 -2.65625,0.1875 -27.38385,1.8007 -84.29819,18.25817 -85.4375,36.5625 39.32798,11.38781 88.66748,40.00905 115.6875,-9.5 4.83967,-15.08486 -13.94945,-27.34103 -27.59375,-27.25 z m -141.0625,30.09375 c -16.63928,-0.0828 -32.93167,3.2924 -44.6875,15.65625 19.54517,39.38078 65.49997,12.38111 77.96875,-12.4375 -10.34458,-1.49636 -21.89648,-3.16211 -33.28125,-3.21875 z m 169.8125,6.625 c -11.19981,16.80323 -7.47677,31.41858 2.5,42.1875 l 27.75,-20.125 c -7.53229,-10.50635 -17.16678,-18.89976 -30.25,-22.0625 z m -240.5625,1.96875 c -8.1713,-0.098 -17.08078,6.45144 -25.375,23.1875 -7.41815,23.92125 -22.2866,77.50742 -7.40625,88.1875 17.15803,-22.44439 40.09727,-40.1258 61.65625,-58.1875 1.44352,-24.98826 -12.1433,-52.98686 -28.875,-53.1875 z m 214.71875,29.84375 c -29.06297,-0.42821 -39.85952,34.3401 -47.28125,65.15625 l 55.71875,-40.375 c 1.70164,-8.49758 1.87286,-16.5744 -0.0312,-23.75 -2.95877,-0.65117 -5.76145,-0.99228 -8.40625,-1.03125 z m -168.90625,8.71875 c -32.67918,35.8001 26.55899,76.61478 50.15625,101.9375 1.49823,1.02813 3.04337,1.9886 4.59375,2.9375 l 11.03125,-8 c -8.94711,-39.7091 -35.06585,-88.56507 -65.78125,-96.875 z m -85.1875,78.59375 c -17.91478,8.14603 7.42473,18.82931 0,0 z m 413.78125,39.375 -50.25,3.53125 c 4.10699,3.47779 9.15778,6.29456 15.4375,8.25 23.32043,7.67433 33.32467,0.56169 34.8125,-11.78125 z m -69.78125,4.875 -77.96875,5.46875 c -7.88593,2.38487 -15.15781,4.60488 -21.1875,6 -6.4068,3.02986 -12.52305,6.71443 -18.125,11.0625 37.98116,16.16114 102.27859,22.23943 129.59375,-2.875 -2.04844,-9.39255 -6.40532,-15.68127 -12.3125,-19.65625 z m -130.375,9.15625 -70.09375,4.90625 c -5.68671,12.00678 -4.32622,25.95288 11.03125,36.96875 3.916,5.21951 6.29271,11.58782 6.59375,18.09375 34.11346,2.65705 74.38986,-29.92596 52.46875,-59.96875 z m 177.375,8.59375 c -39.86041,0.60165 -39.07606,51.31523 -24.28125,73.8125 15.91843,-20.20173 36.37837,-46.12946 28.28125,-73.6875 -1.37126,-0.0875 -2.71418,-0.14441 -4,-0.125 z m -297.9375,0.90625 c -1.44655,0.004 -3.02522,0.11773 -4.75,0.3125 -15.29991,13.35627 -54.94147,43.80899 -10.3125,36.6875 17.96054,0.50121 44.47563,-37.074 15.0625,-37 z m 29.3125,6.15625 c -12.94038,0.27037 -8.08313,34.49936 11.84375,6.4375 -4.91407,-4.73471 -8.85751,-6.49989 -11.84375,-6.4375 z m 85.03125,39.96875 c 4.79318,41.2297 33.69585,102.42844 68.40625,111.8125 32.67459,-35.81375 -26.5336,-76.59945 -50.15625,-101.90625 -5.71461,-3.92103 -11.82705,-7.29249 -18.25,-9.90625 z m -53.65625,12.4375 c -36.21364,17.70704 -44.48172,61.14161 -43.3125,97.875 -1.11511,10.64612 -2.32919,13.94373 9.15625,16.53125 18.18034,-31.09831 56.09033,-89.64998 34.15625,-114.40625 z m -140.9375,10.59375 c -46.81401,10.29855 -9.01961,66.90058 13.46875,48.84375 -6.14616,-15.78061 -10.37163,-32.08084 -13.46875,-48.84375 z m 348.1875,10.1875 c -18.57606,32.10634 -74.03309,46.15304 -64,90.78125 13.15767,62.96172 68.42985,-3.94524 60.53125,-40.28125 1.65014,-16.80685 3.53609,-33.58689 3.46875,-50.5 z m -332.34375,49.65625 c -2.82319,24.63684 33.35132,45.43077 20.78125,11.375 -6.41503,-4.81171 -14.69319,-6.03066 -20.78125,-11.375 z m 236.9375,40.53125 c -19.32575,0.47042 -40.20501,16.82294 -48,32.3125 25.45536,3.68394 58.133,8.43562 77.9375,-12.375 -7.31031,-14.77741 -18.34205,-20.21975 -29.9375,-19.9375 z m -136.5,8.28125 c -10.33471,0.20393 -18.06268,5.76518 -20.75,21.78125 -17.49335,63.48692 59.69868,21.96502 88.875,6.84375 l 5.96875,-3.1875 5.96875,-3.125 c -21.99242,2.74051 -57.32613,-22.76114 -80.0625,-22.3125 z"
         style="fill:#2c2c2c;fill-opacity:1;fill-rule:evenodd;stroke:none" />
    </g>
  </g>
</svg>
